<svg width="55" height="55" viewBox="0 0 55 55" fill="none" xmlns="http://www.w3.org/2000/svg">
<rect width="55" height="55" rx="10" transform="matrix(1 0 0 -1 0 55)" fill="#EC3750"/>
<path d="M20.53 22.28C20.61 20.14 21.31 18.49 22.63 17.33C23.95 16.17 25.74 15.59 28 15.59C29.5 15.59 30.78 15.85 31.84 16.37C32.92 16.89 33.73 17.6 34.27 18.5C34.83 19.4 35.11 20.41 35.11 21.53C35.11 22.85 34.78 23.93 34.12 24.77C33.46 25.59 32.69 26.15 31.81 26.45V26.57C32.95 26.95 33.85 27.58 34.51 28.46C35.17 29.34 35.5 30.47 35.5 31.85C35.5 33.09 35.21 34.19 34.63 35.15C34.07 36.09 33.24 36.83 32.14 37.37C31.06 37.91 29.77 38.18 28.27 38.18C25.87 38.18 23.95 37.59 22.51 36.41C21.09 35.23 20.34 33.45 20.26 31.07H25.24C25.26 31.95 25.51 32.65 25.99 33.17C26.47 33.67 27.17 33.92 28.09 33.92C28.87 33.92 29.47 33.7 29.89 33.26C30.33 32.8 30.55 32.2 30.55 31.46C30.55 30.5 30.24 29.81 29.62 29.39C29.02 28.95 28.05 28.73 26.71 28.73H25.75V24.56H26.71C27.73 24.56 28.55 24.39 29.17 24.05C29.81 23.69 30.13 23.06 30.13 22.16C30.13 21.44 29.93 20.88 29.53 20.48C29.13 20.08 28.58 19.88 27.88 19.88C27.12 19.88 26.55 20.11 26.17 20.57C25.81 21.03 25.6 21.6 25.54 22.28H20.53Z" fill="white"/>
</svg>
