<svg width="55" height="55" viewBox="0 0 55 55" fill="none" xmlns="http://www.w3.org/2000/svg">
<rect width="55" height="55" rx="10" transform="matrix(1 0 0 -1 0 55)" fill="#EC3750"/>
<path d="M20.17 33.89C20.85 33.35 21.16 33.1 21.1 33.14C23.06 31.52 24.6 30.19 25.72 29.15C26.86 28.11 27.82 27.02 28.6 25.88C29.38 24.74 29.77 23.63 29.77 22.55C29.77 21.73 29.58 21.09 29.2 20.63C28.82 20.17 28.25 19.94 27.49 19.94C26.73 19.94 26.13 20.23 25.69 20.81C25.27 21.37 25.06 22.17 25.06 23.21H20.11C20.15 21.51 20.51 20.09 21.19 18.95C21.89 17.81 22.8 16.97 23.92 16.43C25.06 15.89 26.32 15.62 27.7 15.62C30.08 15.62 31.87 16.23 33.07 17.45C34.29 18.67 34.9 20.26 34.9 22.22C34.9 24.36 34.17 26.35 32.71 28.19C31.25 30.01 29.39 31.79 27.13 33.53H35.23V37.7H20.17V33.89Z" fill="white"/>
</svg>
