<svg width="55" height="55" viewBox="0 0 55 55" fill="none" xmlns="http://www.w3.org/2000/svg">
<rect width="55" height="55" rx="10" transform="matrix(1 0 0 -1 0 55)" fill="#EC3750"/>
<path d="M32.86 41.6L30.16 37.97C29.36 38.13 28.58 38.21 27.82 38.21C25.84 38.21 24.02 37.75 22.36 36.83C20.72 35.91 19.41 34.63 18.43 32.99C17.47 31.33 16.99 29.47 16.99 27.41C16.99 25.35 17.47 23.5 18.43 21.86C19.41 20.22 20.72 18.94 22.36 18.02C24.02 17.1 25.84 16.64 27.82 16.64C29.8 16.64 31.61 17.1 33.25 18.02C34.91 18.94 36.21 20.22 37.15 21.86C38.11 23.5 38.59 25.35 38.59 27.41C38.59 29.21 38.22 30.86 37.48 32.36C36.76 33.84 35.75 35.07 34.45 36.05L39.07 41.6H32.86ZM22.24 27.41C22.24 29.27 22.74 30.76 23.74 31.88C24.76 32.98 26.12 33.53 27.82 33.53C29.5 33.53 30.84 32.97 31.84 31.85C32.86 30.73 33.37 29.25 33.37 27.41C33.37 25.55 32.86 24.07 31.84 22.97C30.84 21.85 29.5 21.29 27.82 21.29C26.12 21.29 24.76 21.84 23.74 22.94C22.74 24.04 22.24 25.53 22.24 27.41Z" fill="white"/>
</svg>
